# xmcd CD database file
#
# Track frame offsets:
#	150
#	15387
#	33592
#	54015
#	66417
#	85855
#	108810
#	125725
#	139422
#	161655
#
# Disc length: 2534 seconds
#
# Revision: 2
# Processed by: cddbd v1.5.1PL0 Copyright (c) Steve Scherf et al.
# Submitted via: CDex 1.51
#
DISCID=8109e40a
DTITLE=E.D.P.S - Edges Of Dream
DYEAR=1900
DGENRE=
TTITLE0=All Of The Night
TTITLE1=Mind Game
TTITLE2=Rejection
TTITLE3=Keep On
TTITLE4=Through
TTITLE5=Tell A Lie
TTITLE6=Sentimental Boy
TTITLE7=Devil Is Watchin' You
TTITLE8=Chippoke
TTITLE9=Day Break
EXTD=
EXTT0=
EXTT1=
EXTT2=
EXTT3=
EXTT4=
EXTT5=
EXTT6=
EXTT7=
EXTT8=
EXTT9=
PLAYORDER=
